<svg xmlns="http://www.w3.org/2000/svg" fill="none" viewBox="0 0 110 28" height="28" width="110">
<g clip-path="url(#clip0_558_3974)">
<path fill="white" d="M33.9845 6.69278L39.2443 20.7337H36.3361L35.2227 17.7236H29.4351L28.3217 20.7433H25.4711L30.702 6.7024L33.9845 6.69278ZM30.3373 15.2808H34.3013L32.3145 9.88565L30.3373 15.2808ZM52.432 20.7433H49.9365L43.381 11.0589V20.7433H40.6264V6.7024H43.5346L49.6869 15.9059V6.69278H52.4416L52.432 20.7433ZM54.8891 6.69278H59.7169C64.132 6.69278 66.8195 9.43365 66.8195 13.7133C66.8195 17.9929 64.132 20.7337 59.7169 20.7337H54.8891V6.69278ZM59.7169 18.2814C62.4236 18.2814 63.988 16.483 63.988 13.7325C63.988 10.9435 62.4236 9.17399 59.6977 9.17399H57.7013V18.2814H59.7169ZM68.3839 15.127V6.7024H71.2634V15.0308C71.2634 17.3966 72.4151 18.416 74.162 18.416C75.9184 18.416 77.0702 17.3966 77.0702 15.0308V6.7024H79.94V15.127C79.94 19.0026 77.6077 20.9357 74.1524 20.9357C70.6971 20.9357 68.3839 19.0026 68.3839 15.127ZM85.0462 20.7433H82.1763V6.7024H87.916C91.1409 6.7024 93.1469 8.2219 93.1469 11.1263C93.1469 13.2516 91.9951 14.6846 90.0275 15.252L93.5212 20.7433H90.2387L87.0042 15.5213H85.0462V20.7433ZM87.7624 13.117C89.4421 13.117 90.2963 12.3861 90.2963 11.1359C90.2963 9.86642 89.4325 9.14514 87.7624 9.14514H85.0462V13.117H87.7624ZM97.9267 20.7433H95.0569V6.7024H97.9363L97.9267 20.7433ZM100.365 6.69278H103.244V18.2525H109.684V20.7433H100.374L100.365 6.69278ZM21.9774 16.7426C21.699 16.608 21.4303 16.4541 21.1615 16.3002C20.27 15.7754 19.4395 15.1529 18.6853 14.4442C18.4261 14.2037 18.167 13.9537 17.927 13.6844C15.7546 11.3194 14.463 8.2759 14.2701 5.0675L14.2414 4.23081V4.15387C14.2427 4.13414 14.2399 4.11434 14.2333 4.09571C14.2266 4.07708 14.2162 4.06002 14.2027 4.04559C14.1892 4.03116 14.1729 4.01967 14.1548 4.01182C14.1367 4.00398 14.1171 3.99996 14.0974 4H8.56891C8.54917 3.99996 8.52963 4.00398 8.5115 4.01182C8.49338 4.01967 8.47706 4.03116 8.46356 4.04559C8.45005 4.06002 8.43966 4.07708 8.43301 4.09571C8.42637 4.11434 8.42362 4.13414 8.42494 4.15387V4.23081L8.39614 5.0675C8.2036 8.23566 6.94107 11.2439 4.81607 13.5978C4.57612 13.8671 4.31697 14.1268 4.05783 14.3672C3.30473 15.0884 2.47423 15.7238 1.58153 16.2618C1.31453 16.4182 1.04244 16.5658 0.765696 16.7042C0.731361 16.7208 0.705005 16.7504 0.692409 16.7864C0.679813 16.8225 0.682007 16.8621 0.69851 16.8965C0.823284 17.185 0.948059 17.4543 1.08243 17.7043C1.56686 18.6424 2.1772 19.5096 2.89646 20.2817C3.10762 20.5125 3.33797 20.7337 3.56833 20.9549C5.69583 22.9085 8.47537 23.9946 11.3612 24C14.2469 24.0053 17.0305 22.9295 19.1652 20.9838C19.4051 20.7626 19.6259 20.5414 19.837 20.3202C20.5588 19.5515 21.1723 18.6876 21.6606 17.7524C21.8011 17.486 21.9292 17.2132 22.0446 16.935C22.0611 16.9005 22.0633 16.8609 22.0507 16.8249C22.0381 16.7888 22.0117 16.7592 21.9774 16.7426ZM5.32477 20.5029C5.32666 20.5305 5.32059 20.5581 5.30728 20.5823C5.29397 20.6066 5.27398 20.6265 5.24971 20.6396C5.22543 20.6528 5.19788 20.6587 5.17035 20.6566C5.14281 20.6546 5.11646 20.6446 5.09442 20.6279C4.92165 20.4997 4.75528 20.3651 4.59532 20.224C4.34577 20.0124 4.13461 19.8009 3.93305 19.5989C3.28824 18.929 2.73621 18.1754 2.29179 17.3581C2.27374 17.326 2.26865 17.2882 2.27758 17.2524C2.2865 17.2166 2.30876 17.1856 2.33978 17.1658C3.13806 16.6782 3.88988 16.118 4.58572 15.4924C4.83527 15.2712 5.08482 15.0308 5.31517 14.7904C7.19089 12.8686 8.51685 10.4771 9.15439 7.86607C9.15439 7.82781 9.16956 7.79112 9.19656 7.76406C9.22356 7.73701 9.26018 7.72181 9.29836 7.72181C9.33654 7.72181 9.37316 7.73701 9.40016 7.76406C9.42716 7.79112 9.44233 7.82781 9.44233 7.86607C9.70366 9.22108 10.1124 10.5433 10.6613 11.8091C10.6706 11.8286 10.6755 11.8499 10.6755 11.8716C10.6755 11.8932 10.6706 11.9146 10.6613 11.9341C9.72812 13.8964 8.44675 15.6723 6.87965 17.1754C6.64288 17.3866 6.41855 17.6114 6.20779 17.8486C5.77492 18.3557 5.48646 18.9703 5.37276 19.6278C5.33429 19.8404 5.31501 20.056 5.31517 20.2721V20.5029H5.32477ZM14.6637 17.714C14.6801 17.7295 14.6926 17.7487 14.7003 17.7701C14.7079 17.7914 14.7104 17.8142 14.7076 17.8367C14.7048 17.8591 14.6968 17.8806 14.6841 17.8994C14.6715 17.9182 14.6546 17.9337 14.6349 17.9448C13.6575 18.5228 12.5448 18.8314 11.4099 18.8392H11.3811C10.2098 18.8385 9.06117 18.5158 8.06021 17.9063C8.04214 17.895 8.02679 17.8799 8.01527 17.8619C8.00375 17.844 7.99635 17.8237 7.99359 17.8025C7.99084 17.7814 7.9928 17.7599 7.99934 17.7396C8.00588 17.7193 8.01684 17.7007 8.03142 17.6851C8.31936 17.3966 8.6073 17.0888 8.86645 16.7811C9.76346 15.7555 10.5486 14.6367 11.2084 13.444C11.221 13.422 11.2392 13.4038 11.2611 13.3911C11.283 13.3784 11.3078 13.3717 11.3331 13.3717C11.3584 13.3717 11.3833 13.3784 11.4052 13.3911C11.4271 13.4038 11.4453 13.422 11.4579 13.444C12.3214 15.0138 13.4005 16.4543 14.6637 17.7236V17.714ZM6.94684 18.8103C6.95745 18.7944 6.97112 18.7808 6.98704 18.7702C7.00296 18.7596 7.02082 18.7524 7.03958 18.7488C7.05834 18.7452 7.07762 18.7454 7.0963 18.7494C7.11498 18.7533 7.13269 18.761 7.1484 18.7718C8.40061 19.6124 9.87392 20.0609 11.3811 20.0605L11.7267 20.0509C12.0291 20.0375 12.3304 20.0054 12.6289 19.9547C13.7035 19.7758 14.7277 19.3693 15.6331 18.7622C15.659 18.7448 15.6899 18.7364 15.7211 18.7381C15.7522 18.7399 15.782 18.7517 15.8058 18.7718C16.4411 19.3153 17.1112 19.8165 17.8118 20.2721C17.8316 20.2853 17.8479 20.3031 17.8591 20.3241C17.8703 20.3451 17.8762 20.3685 17.8762 20.3923C17.8762 20.4161 17.8703 20.4396 17.8591 20.4605C17.8479 20.4815 17.8316 20.4994 17.8118 20.5125C16.009 21.9481 13.7798 22.74 11.4771 22.7629H11.3907C10.9188 22.7617 10.4475 22.7295 9.97982 22.6668C8.95967 22.5288 7.96622 22.237 7.03322 21.8012C7.01012 21.7906 6.99025 21.774 6.97563 21.7531C6.66914 21.3248 6.50271 20.8118 6.49927 20.2848C6.49583 19.7577 6.65555 19.2426 6.95644 18.8103H6.94684ZM16.5257 17.8486L15.8346 17.2235C14.2126 15.6779 12.8941 13.8414 11.9474 11.8091C11.7729 11.4371 11.6128 11.0586 11.4675 10.6743C10.8163 8.9804 10.4278 7.19658 10.3158 5.38486C10.313 5.36437 10.3147 5.34352 10.3207 5.32373C10.3267 5.30395 10.3368 5.28568 10.3505 5.27018C10.3641 5.25467 10.381 5.24229 10.3998 5.23387C10.4187 5.22545 10.4391 5.22118 10.4597 5.22137H12.9552C12.9741 5.22006 12.9931 5.22251 13.0111 5.22858C13.0291 5.23465 13.0456 5.24421 13.0599 5.25672C13.0742 5.26923 13.0858 5.28444 13.0942 5.30148C13.1026 5.31852 13.1076 5.33705 13.1088 5.35601L13.1856 6.17346C13.6163 9.45722 15.106 12.5101 17.4279 14.8673C17.6583 15.1077 17.9078 15.3385 18.1574 15.5597C18.8534 16.1794 19.6053 16.7332 20.4033 17.2139C20.4343 17.2337 20.4566 17.2647 20.4655 17.3005C20.4744 17.3362 20.4693 17.3741 20.4513 17.4062C20.0388 18.1514 19.5358 18.8427 18.954 19.4643C18.9318 19.4897 18.9014 19.5066 18.868 19.5118C18.8347 19.5171 18.8006 19.5105 18.7716 19.4931C17.9817 19.004 17.2308 18.4541 16.5257 17.8486Z"></path>
</g>
<defs>
<clipPath id="clip0_558_3974">
<rect transform="translate(0.684326)" fill="white" height="28" width="109"></rect>
</clipPath>
</defs>
</svg>
