<svg xmlns="http://www.w3.org/2000/svg" fill="none" viewBox="0 0 122 28" height="28" width="122">
<g clip-path="url(#clip0_558_3977)">
<path fill="white" d="M24.7129 11.5294L13.1687 18.0735L0.903972 11.1029L0.330442 11.4118V16.4706L13.1834 23.7941L24.7276 17.25V19.9412L13.1834 26.4853L0.903972 19.5147L0.330442 19.8235V20.6765L13.1834 28L26.0805 20.6765V15.6176L25.507 15.3088L13.1687 22.2794L1.66868 15.7353V13.0882L13.1687 19.5882L26.0658 12.2647V7.27941L25.404 6.92647L13.1687 13.8529L2.28633 7.66177L13.1687 1.51471L22.154 6.57353L22.9628 6.14706V5.52941L13.1687 0L0.315735 7.29412V8.07353L13.1687 15.3971L24.7129 8.85294V11.5294Z"></path>
<path fill="white" d="M57.6694 17.5749V13.0896C57.6694 12.972 57.5958 12.8984 57.4782 12.8984H56.0076V11.1484H57.4782C57.5958 11.1484 57.6694 11.0749 57.6694 10.9573V8.14845H59.7576V10.9573C59.7576 11.0749 59.8311 11.1484 59.9488 11.1484H62.0076V12.8984H59.9488C59.8311 12.8984 59.7576 12.972 59.7576 13.0896V17.0602C59.7576 18.9279 60.4194 19.0896 61.2723 19.0896C61.5812 19.0896 62.0517 19.0455 62.3164 19.0161V20.8396C61.9635 20.8837 61.39 20.9573 60.7282 20.9573C59.9194 20.9132 57.6694 20.9132 57.6694 17.5749ZM114.508 18.6632L116.214 17.7661C116.596 18.6632 117.331 19.2514 118.184 19.2514C118.846 19.2514 119.581 18.972 119.581 18.1632C119.581 17.619 119.228 17.3102 118.42 17.0308L117.258 16.6484C115.625 16.1484 114.817 15.2073 114.817 13.8837C114.817 12.2073 116.214 10.9573 118.111 10.9573C119.625 10.9573 120.905 11.7808 121.522 13.0602L119.817 14.0014C119.434 13.1779 118.817 12.722 118.081 12.722C117.346 12.722 116.846 13.1043 116.846 13.6926C116.846 14.1926 117.228 14.5896 118.008 14.8249L119.17 15.2073C120.875 15.7514 121.684 16.6926 121.684 17.972C121.684 20.0014 119.949 21.0455 118.199 21.0455C116.449 21.0014 115.052 20.1043 114.508 18.6632ZM108.081 16.9132C108.037 16.9573 108.008 16.9867 108.008 17.0308V20.7661H105.875V6.94257H108.008V14.5014C108.008 14.5749 108.052 14.6632 108.125 14.6632C108.199 14.7073 108.287 14.6632 108.317 14.619L111.758 11.119H114.346L110.331 15.1926C110.258 15.2661 110.258 15.3543 110.331 15.4279L114.699 20.7661H112.111L108.743 16.5602C108.699 16.5161 108.67 16.4867 108.625 16.4867C108.581 16.4867 108.552 16.4867 108.508 16.5308L108.081 16.9132ZM104.831 12.4279L103.478 13.7073C102.699 13.119 101.934 12.8543 101.081 12.8543C99.3018 12.8543 97.9783 14.1779 97.9783 15.972C97.9783 17.7661 99.3018 19.0896 101.081 19.0896C101.861 19.0896 102.669 18.8102 103.522 18.2367L104.728 19.5161C102.993 20.7955 102.052 21.0308 100.861 21.0308C99.4342 21.0308 98.1548 20.5308 97.2283 19.5896C96.3312 18.6926 95.8312 17.369 95.8312 15.972C95.8312 13.0455 97.9636 10.9132 100.905 10.9132C101.846 10.9132 103.287 11.0602 104.831 12.4279ZM94.8459 8.2661C94.8459 8.97198 94.2724 9.5455 93.5665 9.5455C92.8753 9.5455 92.2871 8.95727 92.2871 8.2661C92.2871 7.56021 92.8606 6.98668 93.5665 6.98668C94.2577 6.97198 94.8459 7.56021 94.8459 8.2661ZM94.6401 20.7661H92.5077V11.1484H94.6401V20.7661ZM87.8753 16.5602V20.8102H85.743V11.1926H87.8312V12.3543C87.8312 12.4279 87.8753 12.5161 87.9489 12.5455C88.0224 12.5896 88.1106 12.5455 88.14 12.472C88.6842 11.5749 89.6842 10.9867 90.7724 10.9867C90.9342 10.9867 91.0371 10.9867 91.1253 11.0308V13.2073C91.0077 13.1632 90.8165 13.1632 90.6253 13.1632C88.9195 13.1337 87.8753 14.4573 87.8753 16.5602ZM76.4488 15.972C76.4488 14.222 77.7724 12.8543 79.4636 12.8543C81.1694 12.8543 82.4783 14.222 82.4783 15.972C82.4783 17.722 81.1547 19.0896 79.4636 19.0896C77.7724 19.0896 76.4488 17.722 76.4488 15.972ZM76.64 19.6337C76.6841 19.6337 76.6841 19.6337 76.7135 19.6337C76.7577 19.6337 76.8312 19.6779 76.8753 19.7073C77.6106 20.5602 78.6988 21.0308 79.9341 21.0308C82.5665 21.0308 84.5812 18.8102 84.5812 15.972C84.5812 14.5749 84.1106 13.3249 83.2283 12.3543C82.3753 11.4132 81.1694 10.9132 79.9047 10.9132C78.6988 10.9132 77.5812 11.4132 76.8459 12.3102C76.8018 12.3543 76.7282 12.3837 76.6547 12.3543C76.5812 12.3102 76.5371 12.2808 76.5371 12.1926V6.97197H74.4047V20.7955H76.5371V19.8249C76.5224 19.7073 76.5665 19.6779 76.64 19.6337ZM67.8165 19.0896C66.1547 19.0896 64.8017 17.722 64.8017 15.972C64.8017 14.222 66.1253 12.8543 67.8165 12.8543C69.5223 12.8543 70.8312 14.222 70.8312 15.972C70.8312 17.722 69.4782 19.0896 67.8165 19.0896ZM72.8165 20.7661V11.1484H70.7282V12.119C70.7282 12.1926 70.6841 12.2808 70.6106 12.2808C70.5371 12.3249 70.4488 12.2808 70.4194 12.2367C69.7282 11.3837 68.64 10.9132 67.3606 10.9132C64.7282 10.9132 62.7135 13.1337 62.7135 15.972C62.7135 18.8102 64.7723 21.0308 67.3606 21.0308C68.5665 21.0308 69.6841 20.5308 70.4194 19.6337C70.4635 19.5602 70.5371 19.5602 70.6106 19.5896C70.6841 19.6337 70.7282 19.6632 70.7282 19.7514V20.8102H72.8165V20.7661ZM49.8899 19.0896C48.2282 19.0896 46.8752 17.722 46.8752 15.972C46.8752 14.222 48.1988 12.8543 49.8899 12.8543C51.5517 12.8543 52.9047 14.222 52.9047 15.972C52.9047 17.722 51.5517 19.0896 49.8899 19.0896ZM54.89 20.7661V11.1484H52.8017V12.119C52.8017 12.1926 52.7576 12.2808 52.6841 12.2808C52.6105 12.3249 52.5223 12.2808 52.4929 12.2367C51.8017 11.3837 50.7135 10.9132 49.4341 10.9132C46.8017 10.9132 44.787 13.1337 44.787 15.972C44.787 18.8102 46.8458 21.0308 49.4341 21.0308C50.6399 21.0308 51.7576 20.5308 52.4929 19.6337C52.537 19.5602 52.6105 19.5602 52.6841 19.5896C52.7576 19.6337 52.8017 19.6632 52.8017 19.7514V20.8102H54.89V20.7661ZM38.5811 19.0896C36.8752 19.0896 35.5664 17.722 35.5664 15.972C35.5664 14.222 36.8899 12.8543 38.5811 12.8543C40.2429 12.8543 41.5958 14.222 41.5958 15.972C41.6105 17.722 40.2429 19.0896 38.5811 19.0896ZM43.5811 20.7661V6.97197H41.4487V12.1484C41.4487 12.222 41.4046 12.3102 41.3311 12.3102C41.2576 12.3543 41.1693 12.3102 41.1399 12.2661C40.4046 11.4132 39.3164 10.9426 38.0811 10.9426C35.4487 10.9426 33.434 13.1632 33.434 16.0014C33.434 17.3984 33.9046 18.6484 34.787 19.619C35.6399 20.5602 36.8458 21.0602 38.1105 21.0602C39.3164 21.0602 40.434 20.5602 41.1693 19.6632C41.2135 19.619 41.287 19.5896 41.3605 19.619C41.434 19.6632 41.4782 19.6926 41.4782 19.7808V20.7955H43.5664V20.7661H43.5811Z"></path>
</g>
<defs>
<clipPath id="clip0_558_3977">
<rect transform="translate(0.315735)" fill="white" height="28" width="121.369"></rect>
</clipPath>
</defs>
</svg>
