<svg xmlns="http://www.w3.org/2000/svg" fill="none" viewBox="0 0 69 28" height="28" width="69">
<g clip-path="url(#clip0_558_3969)">
<path fill="white" d="M68.2116 18.0018C68.096 18.0018 67.9906 18.0766 67.9362 18.233C67.2392 20.222 66.2974 21.4052 65.5222 21.4052C65.0768 21.4052 64.8966 20.9088 64.8966 20.1302C64.8966 18.182 66.0628 14.051 66.651 12.1674C66.719 11.9396 66.7632 11.7356 66.7632 11.5622C66.7632 11.0148 66.464 10.7462 65.7228 10.7462C64.9238 10.7462 64.0636 11.059 63.2272 12.5244C62.9382 11.2324 62.0644 10.668 60.8438 10.668C59.4328 10.668 58.0694 11.5758 56.9474 13.048C55.8254 14.5202 54.5062 15.003 53.5134 14.765C54.2274 13.0174 54.4926 11.7118 54.4926 10.7428C54.4926 9.22299 53.7412 8.30499 52.5274 8.30499C50.6812 8.30499 49.617 10.0662 49.617 11.9192C49.617 13.3506 50.2664 14.8228 51.6944 15.5368C50.4976 18.2432 48.75 20.6912 48.087 20.6912C47.2302 20.6912 46.9786 16.499 47.0262 13.5002C47.0568 11.7798 47.1996 11.6914 47.1996 11.1712C47.1996 10.872 47.0058 10.668 46.2272 10.668C44.4116 10.668 43.8506 12.2048 43.7656 13.9694C43.7382 14.64 43.6332 15.3051 43.4528 15.9516C42.6946 18.658 41.1306 20.7116 40.1106 20.7116C39.638 20.7116 39.5088 20.239 39.5088 19.6202C39.5088 17.672 40.6002 15.2376 40.6002 13.1602C40.6002 11.6336 39.9304 10.668 38.669 10.668C37.1832 10.668 35.218 12.436 33.3582 15.7476C33.9702 13.2112 34.2218 10.7564 32.4096 10.7564C32.0165 10.7623 31.6305 10.8625 31.2842 11.0488C31.168 11.1032 31.0708 11.1912 31.0053 11.3016C30.9398 11.412 30.909 11.5395 30.917 11.6676C31.0904 14.3672 28.741 21.2828 26.514 21.2828C26.1094 21.2828 25.9122 20.8442 25.9122 20.137C25.9122 18.1854 27.075 14.0646 27.6598 12.1776C27.7346 11.9328 27.7754 11.722 27.7754 11.5384C27.7754 11.0216 27.4558 10.7564 26.7316 10.7564C25.936 10.7564 25.0724 11.059 24.2394 12.5244C23.947 11.2324 23.0732 10.668 21.8526 10.668C19.85 10.668 17.6128 12.7862 16.6302 15.547C15.3144 19.2326 12.6624 22.7924 9.0924 22.7924C5.8522 22.7924 4.142 20.0962 4.142 15.836C4.142 9.68539 8.6572 4.66019 12.0062 4.66019C13.6076 4.66019 14.3726 5.68019 14.3726 7.24419C14.3726 9.13799 13.3152 10.0186 13.3152 10.7394C13.3152 10.9604 13.4988 11.178 13.8626 11.178C15.3178 11.178 17.0314 9.46779 17.0314 7.13539C17.0314 4.80299 15.1376 3.09619 11.7886 3.09619C6.2534 3.09619 0.684204 8.66539 0.684204 15.802C0.684204 21.48 3.4858 24.9038 8.3308 24.9038C11.6356 24.9038 14.5222 22.3334 16.0794 19.3346C16.2562 21.82 17.385 23.1188 19.1054 23.1188C20.6354 23.1188 21.873 22.2076 22.8182 20.6062C23.182 22.2824 24.1476 23.1018 25.4022 23.1018C26.8404 23.1018 28.044 22.1906 29.1898 20.4974C29.1728 21.8268 29.4754 23.078 30.628 23.078C31.172 23.078 31.8214 22.9522 31.937 22.4762C33.1508 17.4578 36.1496 13.3608 37.0676 13.3608C37.3396 13.3608 37.4144 13.6226 37.4144 13.932C37.4144 15.2954 36.4522 18.0902 36.4522 19.8752C36.4522 21.803 37.2716 23.078 38.9648 23.078C40.8416 23.078 42.749 20.7796 44.0206 17.4204C44.4184 20.5586 45.2786 23.0916 46.625 23.0916C48.2774 23.0916 51.2116 19.6134 52.9898 15.9312C53.6868 16.0196 54.734 15.9958 55.7404 15.2852C55.312 16.3698 55.0604 17.5564 55.0604 18.743C55.0604 22.16 56.6924 23.1188 58.0966 23.1188C59.6232 23.1188 60.8608 22.2076 61.8094 20.6062C62.1222 22.0512 62.9212 23.0984 64.39 23.0984C66.6884 23.0984 68.6842 20.749 68.6842 18.8212C68.6842 18.3112 68.4666 18.0018 68.2116 18.0018ZM20.5062 21.225C19.578 21.225 19.2142 20.29 19.2142 18.896C19.2142 16.4752 20.87 12.4326 22.621 12.4326C23.386 12.4326 23.675 13.3336 23.675 14.4352C23.675 16.8934 22.1008 21.225 20.5062 21.225ZM52.2996 14C51.7454 13.3404 51.5448 12.4428 51.5448 11.6438C51.5448 10.6578 51.9052 9.82479 52.337 9.82479C52.7688 9.82479 52.9014 10.2498 52.9014 10.8414C52.9014 11.8308 52.5478 13.2758 52.2996 14ZM59.4974 21.225C58.5692 21.225 58.2054 20.1506 58.2054 18.896C58.2054 16.5602 59.8612 12.4326 61.6258 12.4326C62.3908 12.4326 62.6628 13.3268 62.6628 14.4352C62.6628 16.8934 61.1158 21.225 59.4974 21.225Z"></path>
</g>
<defs>
<clipPath id="clip0_558_3969">
<rect transform="translate(0.684204)" fill="white" height="28" width="68"></rect>
</clipPath>
</defs>
</svg>
