<svg xmlns="http://www.w3.org/2000/svg" fill="none" viewBox="0 0 111 28" height="28" width="111">
<path fill="white" d="M22.7208 16.3656L17.3428 8.08563H14.4353V19.9034H16.9057V11.6234L22.2837 19.9034H25.1912V8.08563H22.7208V16.3656Z"></path>
<path fill="white" d="M27.2378 10.3628H31.2475V19.9036H33.813V10.3628H37.8227V8.08582H27.2378V10.3628Z"></path>
<path fill="white" d="M48.0582 12.8092H42.4331V8.10463H39.8677V19.9224H42.4331V15.0861H48.0582V19.9224H50.6236V8.08582H48.0582V12.8092Z"></path>
<path fill="white" d="M56.3264 10.3625H59.481C60.7352 10.3625 61.4004 10.8141 61.4004 11.6797C61.4004 12.5454 60.7352 12.997 59.481 12.997H56.3264V10.3625ZM63.9658 11.6986C63.9658 9.45921 62.3125 8.10431 59.595 8.10431H53.761V19.9221H56.3264V15.2928H59.177L61.7424 19.9221H64.5739L61.7424 14.9353C63.1677 14.3895 63.9658 13.2605 63.9658 11.6986Z"></path>
<path fill="white" d="M71.8045 17.7448C69.7901 17.7448 68.5549 16.3334 68.5549 14.0188C68.5549 11.6665 69.7901 10.2552 71.8045 10.2552C73.7998 10.2552 75.016 11.6665 75.016 14.0188C75.016 16.3334 73.7998 17.7448 71.8045 17.7448ZM71.8045 7.88409C68.3648 7.88409 65.9134 10.4245 65.9134 14.0188C65.9134 17.5754 68.3458 20.1158 71.8045 20.1158C75.2251 20.1158 77.6575 17.5754 77.6575 14.0188C77.6575 10.4245 75.2441 7.88409 71.8045 7.88409Z"></path>
<path fill="white" d="M85.7723 13.3359H82.6178V10.3626H85.7723C87.0266 10.3626 87.6917 10.8707 87.6917 11.8492C87.6917 12.8278 87.0456 13.3359 85.7723 13.3359ZM85.8864 8.08563H80.0523V19.9034H82.6178V15.6317H85.8864C88.6039 15.6317 90.2572 14.2203 90.2572 11.8681C90.2572 9.51581 88.6039 8.08563 85.8864 8.08563Z"></path>
<path fill="white" d="M107.598 15.9382C107.161 17.0861 106.268 17.7448 105.052 17.7448C103.037 17.7448 101.802 16.3334 101.802 14.0188C101.802 11.6665 103.037 10.2552 105.052 10.2552C106.268 10.2552 107.142 10.9138 107.598 12.0617H110.316C109.632 9.52127 107.636 7.88409 105.052 7.88409C101.612 7.88409 99.1606 10.4245 99.1606 14.0188C99.1606 17.5754 101.593 20.1158 105.052 20.1158C107.655 20.1158 109.651 18.4599 110.316 15.9382H107.598Z"></path>
<path fill="white" d="M91.2908 8.08563L96.0607 19.9034H98.6642L93.8943 8.08563H91.2908Z"></path>
<path fill="white" d="M4.81949 15.2365L6.45378 11.0777L8.08808 15.2365H4.81949ZM5.08554 8.08563L0.315674 19.9222H2.97615L3.94533 17.4382H8.92423L9.8934 19.9222H12.5539L7.80303 8.08563H5.08554Z"></path>
</svg>
