<svg xmlns="http://www.w3.org/2000/svg" fill="none" viewBox="0 0 103 28" height="28" width="103">
<mask height="28" width="104" y="0" x="0" maskUnits="userSpaceOnUse" style="mask-type:luminance" id="mask0_355_5768">
<path fill="white" d="M103.941 0H0.690735V28H103.941V0Z"></path>
</mask>
<g mask="url(#mask0_355_5768)">
<path fill="white" d="M32.8414 13.4608C32.8414 18.0388 35.7814 21.2308 39.8554 21.2308C43.9294 21.2308 46.8694 18.0388 46.8694 13.4608C46.8694 8.8828 43.9294 5.6908 39.8554 5.6908C35.7814 5.6908 32.8414 8.8828 32.8414 13.4608ZM44.1814 13.4608C44.1814 16.7368 42.3964 18.8578 39.8554 18.8578C37.3144 18.8578 35.5294 16.7368 35.5294 13.4608C35.5294 10.1848 37.3144 8.0638 39.8554 8.0638C42.3964 8.0638 44.1814 10.1848 44.1814 13.4608Z"></path>
<path fill="white" d="M54.4391 21.2309C57.5261 21.2309 59.2901 18.6269 59.2901 15.4979C59.2901 12.3689 57.5261 9.76489 54.4391 9.76489C53.0111 9.76489 51.9611 10.3319 51.2681 11.1509V9.97489H48.748V24.7799H51.2681V19.8449C51.9611 20.6639 53.0111 21.2309 54.4391 21.2309ZM51.205 15.1829C51.205 13.1039 52.381 11.9699 53.935 11.9699C55.762 11.9699 56.749 13.3979 56.749 15.4979C56.749 17.5979 55.762 19.0259 53.935 19.0259C52.381 19.0259 51.205 17.8709 51.205 15.8339V15.1829Z"></path>
<path fill="white" d="M66.1095 21.2309C68.3145 21.2309 70.0575 20.0759 70.8345 18.1439L68.6715 17.3249C68.3355 18.4589 67.3485 19.0889 66.1095 19.0889C64.4925 19.0889 63.3585 17.9339 63.1695 16.0439H70.8975V15.2039C70.8975 12.1799 69.1965 9.76489 66.0045 9.76489C62.8125 9.76489 60.7545 12.2639 60.7545 15.4979C60.7545 18.8999 62.9595 21.2309 66.1095 21.2309ZM65.9835 11.8859C67.5795 11.8859 68.3355 12.9359 68.3565 14.1539H63.2955C63.6735 12.6629 64.6815 11.8859 65.9835 11.8859Z"></path>
<path fill="white" d="M72.7885 20.9999H75.3085V14.5319C75.3085 12.9569 76.4635 12.1169 77.5975 12.1169C78.9835 12.1169 79.5295 13.1039 79.5295 14.4689V20.9999H82.0495V13.7339C82.0495 11.3609 80.6635 9.76489 78.3535 9.76489C76.9255 9.76489 75.9385 10.4159 75.3085 11.1509V9.97489H72.7885V20.9999Z"></path>
<path fill="white" d="M89.4304 5.92188L83.7184 20.9999H86.3854L87.6664 17.5559H94.1764L95.4784 20.9999H98.1874L92.4754 5.92188H89.4304ZM90.9004 8.90387L93.2944 15.2039H88.5484L90.9004 8.90387Z"></path>
<path fill="white" d="M102.513 5.96552H99.8252V21.0435H102.513V5.96552Z"></path>
<path fill="white" d="M26.6831 11.4599C27.3183 9.55326 27.0996 7.46463 26.0837 5.73038C24.5559 3.07038 21.4847 1.70188 18.4852 2.34588C17.1508 0.842633 15.2337 -0.0122422 13.2238 7.80073e-06C10.1578 -0.0069922 7.43745 1.96701 6.4942 4.88426C4.52457 5.28763 2.82445 6.52051 1.82957 8.26788C0.290446 10.9209 0.641321 14.2651 2.69757 16.5401C2.06232 18.4468 2.28107 20.5354 3.29695 22.2696C4.8247 24.9296 7.89595 26.2981 10.8954 25.6541C12.2289 27.1574 14.1469 28.0123 16.1568 27.9991C19.2246 28.007 21.9458 26.0313 22.8891 23.1114C24.8587 22.708 26.5588 21.4751 27.5537 19.7278C29.0911 17.0748 28.7393 13.7331 26.6839 11.4581L26.6831 11.4599ZM16.1586 26.1695C14.9309 26.1713 13.7418 25.7416 12.7994 24.955C12.8423 24.9323 12.9167 24.8911 12.9648 24.8614L18.5403 21.6414C18.8256 21.4795 19.0006 21.1759 18.9988 20.8478V12.9876L21.3552 14.3483C21.3806 14.3605 21.3972 14.385 21.4007 14.413V20.9221C21.3972 23.8166 19.0531 26.1634 16.1586 26.1695ZM4.88507 21.3544C4.26995 20.2921 4.04857 19.047 4.25945 17.8386C4.30057 17.8631 4.3732 17.9078 4.42482 17.9375L10.0003 21.1575C10.2829 21.3229 10.6329 21.3229 10.9164 21.1575L17.7231 17.227V19.9483C17.7248 19.9763 17.7117 20.0034 17.6898 20.0209L12.0539 23.275C9.54357 24.7205 6.33757 23.8613 4.88595 21.3544H4.88507ZM3.4177 9.18401C4.0302 8.12001 4.99707 7.30626 6.14857 6.88363C6.14857 6.93176 6.14595 7.01663 6.14595 7.07613V13.517C6.1442 13.8443 6.3192 14.1479 6.60357 14.3098L13.4102 18.2394L11.0538 19.6C11.0302 19.6158 11.0004 19.6184 10.9742 19.607L5.33745 16.3503C2.83232 14.8995 1.97307 11.6944 3.41682 9.18488L3.4177 9.18401ZM22.7779 13.6894L15.9713 9.75888L18.3277 8.39913C18.3513 8.38338 18.3811 8.38076 18.4073 8.39213L24.0441 11.6463C26.5536 13.0961 27.4137 16.3065 25.9638 18.816C25.3504 19.8783 24.3844 20.692 23.2338 21.1155V14.4821C23.2364 14.1549 23.0623 13.8521 22.7788 13.6894H22.7779ZM25.1229 10.1596C25.0818 10.1343 25.0092 10.0905 24.9576 10.0608L19.3821 6.84076C19.0994 6.67538 18.7494 6.67538 18.4659 6.84076L11.6593 10.7713V8.05001C11.6576 8.02201 11.6707 7.99488 11.6926 7.97738L17.3284 4.72588C19.8388 3.27776 23.0483 4.13963 24.4956 6.65088C25.1072 7.71138 25.3286 8.95301 25.1212 10.1596H25.1229ZM10.3783 15.0098L8.02107 13.6491C7.9957 13.6369 7.97907 13.6124 7.97557 13.5844V7.07526C7.97732 4.17726 10.3284 1.82876 13.2264 1.83051C14.4523 1.83051 15.6388 2.26101 16.5812 3.04501C16.5383 3.06776 16.4648 3.10888 16.4158 3.13863L10.8403 6.35863C10.5551 6.52051 10.3801 6.82326 10.3818 7.15138L10.3783 15.008V15.0098ZM11.6584 12.25L14.6903 10.4991L17.7222 12.2491V15.75L14.6903 17.5L11.6584 15.75V12.25Z"></path>
</g>
</svg>
