<svg data-v-351505c3="" viewBox="0 0 144 144" class="svg-icon svg-fill svg-no-stroke" name="hd-investment-folder" style="width: 96px; height: 96px;"><path pid="0" d="M41.063 56.527v-15.44h43.55L98.82 33.23h19.414v85.423H25.046V56.527h16.017Z" fill="#fff" stroke="#151513"></path><path pid="1" fill-rule="evenodd" clip-rule="evenodd" d="M41.063 48.883v7.645h-8.251v53.907l-.028.466a8.238 8.238 0 0 1-8.223 7.752h93.673v-.027a6.698 6.698 0 0 0 3.341-.564c.87-.39 1.66-.962 2.325-1.683a7.842 7.842 0 0 0 1.554-2.52 8.314 8.314 0 0 0 .546-2.972V40.026h-19.414l-14.208 8.857H41.063Z" fill="url(#svgiconid_hd-investment-folder_a_53_b7Ztx)"></path><path pid="2" d="M41.063 56.528h.5v.5h-.5v-.5Zm0-7.645h-.5v-.5h.5v.5Zm-8.251 7.645h-.5v-.5h.5v.5Zm0 53.907h.5v.015l-.001.015-.5-.03Zm-.028.466-.499-.03.5.03Zm85.45 7.752h.5v.5h-.5v-.5Zm0-.027h-.5v-.547l.545.049-.045.498Zm5.666-2.247.368.339-.368-.339Zm1.554-2.52-.467-.178.467.178Zm.546-2.972-.145-.478.645-.195v.673h-.5Zm0 0 .144.479-.644.195v-.674h.5Zm0-70.861v-.5h.5v.5h-.5Zm-19.414 0-.265-.425.122-.075h.143v.5Zm-14.208 8.857.265.425-.122.075h-.143v-.5Zm-51.815 7.645v-7.645h1v7.645h-1Zm-7.751-.5h8.25v1h-8.25v-1Zm-.5 54.407V56.528h1v53.907h-1Zm-.027.436.028-.465.998.059-.028.465-.998-.059Zm-7.724 7.282a7.738 7.738 0 0 0 7.724-7.282l.998.059a8.738 8.738 0 0 1-8.722 8.223v-1Zm93.673 1H24.561v-1h93.673v1Zm.5-.527v.027h-1v-.027h1Zm.098.527c-.215 0-.43-.01-.643-.029l.09-.996c.184.017.368.025.553.025v1Zm2.948-.635a7.192 7.192 0 0 1-2.948.635v-1c.87 0 1.732-.185 2.538-.547l.41.912Zm2.488-1.8a7.665 7.665 0 0 1-2.488 1.8l-.41-.912a6.666 6.666 0 0 0 2.163-1.567l.735.679Zm1.653-2.68a8.328 8.328 0 0 1-1.653 2.68l-.735-.679a7.34 7.34 0 0 0 1.454-2.358l.934.357Zm.579-3.151a8.816 8.816 0 0 1-.579 3.151l-.934-.357a7.817 7.817 0 0 0 .513-2.794h1Zm-.645-.478.29.957h-.001l-.289-.957Zm.645-70.383v70.861h-1V40.026h1Zm-19.914-.5H126v1h-19.414v-1Zm-14.472 8.933 14.207-8.858.529.849-14.207 8.858-.53-.849Zm-51.051-.076h51.315v1H41.063v-1Z" fill="#151513"></path><path pid="3" d="m32.942 103.38 30.413-23.159a1.941 1.941 0 0 1 1.176-.397h18.506c.476 0 .935-.174 1.29-.49l34.394-30.572m0 0h-6.795m6.795 0v6.795" stroke="#151513" fill="transparent"></path><path pid="4" d="M17.766 56.527A23.297 23.297 0 1 0 41.063 33.23v23.297H17.766Z" fill="#CEDDE3" stroke="#151513"></path><path pid="5" d="M33.297 25.465A23.297 23.297 0 0 0 10 48.762h23.297V25.465Z" fill="#F4633A" stroke="#151513"></path><circle pid="6" cx="2.912" cy="2.912" r="2.412" transform="matrix(-1 0 0 1 59.506 107.975)" fill="#fff" stroke="#151513"></circle><circle pid="7" cx="2.912" cy="2.912" r="2.412" transform="matrix(-1 0 0 1 51.74 107.975)" fill="#fff" stroke="#151513"></circle><path pid="8" fill="#151513" d="M94.452 112.829h3.883v9.707h-3.883zM101.247 106.034h3.883v16.502h-3.883zM108.042 99.239h3.883v23.297h-3.883z"></path><path pid="9" d="M41.063 79.824A23.297 23.297 0 0 0 64.36 56.527H41.063v23.297Z" fill="#CEDDE3" stroke="#151513"></path><defs><linearGradient id="svgiconid_hd-investment-folder_a_53_b7Ztx" x1="75.28" y1="40.026" x2="75.28" y2="118.653" gradientUnits="userSpaceOnUse"><stop stop-color="#DCCFAC"></stop><stop offset="1" stop-color="#B68C45"></stop></linearGradient></defs></svg>