<?xml version="1.0" encoding="UTF-8"?>
<!DOCTYPE svg PUBLIC "-//W3C//DTD SVG 1.1//EN" "http://www.w3.org/Graphics/SVG/1.1/DTD/svg11.dtd">
<svg xmlns="http://www.w3.org/2000/svg" version="1.1" width="1200px" height="1200px" style="shape-rendering:geometricPrecision; text-rendering:geometricPrecision; image-rendering:optimizeQuality; fill-rule:evenodd; clip-rule:evenodd" xmlns:xlink="http://www.w3.org/1999/xlink">
<g><path style="opacity:1" fill="#a9462d" d="M -0.5,-0.5 C 399.5,-0.5 799.5,-0.5 1199.5,-0.5C 1199.5,399.5 1199.5,799.5 1199.5,1199.5C 799.5,1199.5 399.5,1199.5 -0.5,1199.5C -0.5,799.5 -0.5,399.5 -0.5,-0.5 Z"/></g>
<g><path style="opacity:1" fill="#fefefe" d="M 1027.5,131.5 C 1028.38,131.369 1029.04,131.702 1029.5,132.5C 1010.13,176.1 991.631,220.1 974,264.5C 959.136,307.426 944.469,350.426 930,393.5C 925.492,408.05 921.492,422.716 918,437.5C 908.928,385.696 887.261,340.029 853,300.5C 815.416,260.115 769.582,233.782 715.5,221.5C 770.806,209.424 825.806,195.924 880.5,181C 930.098,165.968 979.098,149.468 1027.5,131.5 Z"/></g>
<g><path style="opacity:1" fill="#fefefe" d="M 195.5,378.5 C 385.5,378.5 575.5,378.5 765.5,378.5C 765.667,419.835 765.5,461.168 765,502.5C 665.299,609.866 565.965,717.533 467,825.5C 427.47,864.031 387.637,902.198 347.5,940C 401.502,938.373 455.502,936.373 509.5,934C 599.499,933.5 689.499,933.333 779.5,933.5C 779.5,978.5 779.5,1023.5 779.5,1068.5C 576.5,1068.5 373.5,1068.5 170.5,1068.5C 170.333,1027.17 170.5,985.832 171,944.5C 271.704,832.798 372.037,720.798 472,608.5C 507.899,573.932 544.399,540.098 581.5,507C 533.165,508.912 484.832,511.246 436.5,514C 356.167,514.5 275.834,514.667 195.5,514.5C 195.5,469.167 195.5,423.833 195.5,378.5 Z"/></g>
</svg>
